<svg xmlns="http://www.w3.org/2000/svg" xmlns:xlink="http://www.w3.org/1999/xlink" viewBox="0 0 500 493.06"><defs><style>.cls-1{fill:url(#linear-gradient);}</style><linearGradient id="linear-gradient" x1="75.91" y1="15.05" x2="386.53" y2="392.74" gradientUnits="userSpaceOnUse"><stop offset="0" stop-color="#0236d2"/><stop offset="0.04" stop-color="#0635ce"/><stop offset="0.69" stop-color="#42229b"/><stop offset="1" stop-color="#5a1b87"/></linearGradient></defs><g id="Layer_2" data-name="Layer 2"><g id="Layer_1-2" data-name="Layer 1"><path class="cls-1" d="M497.47,281.52,459.76,165.46a33,33,0,0,0-18.9-58.16L421.59,48a51.17,51.17,0,0,0-48.81-35.46H129A33,33,0,0,0,76.77,53.05L2.53,281.52a51.18,51.18,0,0,0,18.64,57.37l102,74.1a32.57,32.57,0,0,0-.68,6.66,33.06,33.06,0,0,0,49.42,28.74l47.94,34.84a51.18,51.18,0,0,0,60.32,0L478.83,338.89A51.19,51.19,0,0,0,497.47,281.52Zm-52.6-161.93a21.67,21.67,0,0,1-6.5,42.34,22.68,22.68,0,0,1-2.35-.12c-.51-.06-1-.13-1.5-.23a21.7,21.7,0,0,1-17.72-19.22,20.8,20.8,0,0,1-.1-2.1,21.52,21.52,0,0,1,3-11,22.09,22.09,0,0,1,3-3.93,21.6,21.6,0,0,1,15.64-6.68A21.91,21.91,0,0,1,444.87,119.59ZM366.72,381,300.4,391.49a45.64,45.64,0,0,0,15.5-12.42l87.4-108.69a45.63,45.63,0,0,0,6.76-11.52L395.17,352.6A34.13,34.13,0,0,1,366.72,381ZM187,409.4a33.12,33.12,0,0,0-31.43-22.82A32.54,32.54,0,0,0,146,388l-27.47-54a45.68,45.68,0,0,0,15.25,9.58l130.39,49.53a46.53,46.53,0,0,0,9.8,2.54Zm-10.11-78-47-92.28a34.11,34.11,0,0,1,6.32-39.72l73.24-73.18a34.11,34.11,0,0,1,39.73-6.27l92.23,47a34.11,34.11,0,0,1,18.25,35.84L343.43,305.08A34.1,34.1,0,0,1,315,333.51L212.7,349.66A34.14,34.14,0,0,1,176.88,331.38Zm24.54-213.25-73.26,73.19a45.75,45.75,0,0,0-7.56,10l2-41.29a34.15,34.15,0,0,1,25.2-31.35L209,112A45.62,45.62,0,0,0,201.42,118.13ZM115.8,299.29l2.81-57.42c.35.81.74,1.61,1.14,2.41l47,92.28a45.64,45.64,0,0,0,6.86,10l-35.75-13.58A34.13,34.13,0,0,1,115.8,299.29Zm98.68,61.64,102.28-16.15a45.56,45.56,0,0,0,17.35-6.55L307,371.93a34.12,34.12,0,0,1-38.81,10.54l-55.94-21.26C213,361.14,213.74,361,214.48,360.93ZM354.7,306.87,371,204.62a45.54,45.54,0,0,0-3.15-25.22l28.58,43.67a34.12,34.12,0,0,1-2,40.16l-41.94,52.16A45.77,45.77,0,0,0,354.7,306.87Zm-8.08-150-92.24-47a45.45,45.45,0,0,0-18.86-5l46.9-12.74a34.54,34.54,0,0,1,9-1.21A34.12,34.12,0,0,1,320,106.35l39.21,59.94A45.58,45.58,0,0,0,346.62,156.82Zm-67.2-75.75L144.84,117.63a46,46,0,0,0-9.06,3.52L201.2,55.8a34.09,34.09,0,0,1,39.73-6.27l61.18,31.21A45.36,45.36,0,0,0,279.42,81.07ZM111.23,159.42l-6.82,139.31a45.83,45.83,0,0,0,.33,8.22L63.8,226.49a34.11,34.11,0,0,1,6.31-39.72l46.18-46.14A45.59,45.59,0,0,0,111.23,159.42Zm302,79.19a45.71,45.71,0,0,0-7.36-21.79L329.55,100.11A45.64,45.64,0,0,0,321,90.36l85,43.34a32.3,32.3,0,0,0-.67,6.56,33.15,33.15,0,0,0,18.87,29.87ZM372.78,35.33A28.44,28.44,0,0,1,399.9,55l19,58.53a33.13,33.13,0,0,0-8.77,9.5l-164-83.68a46.13,46.13,0,0,0-11.41-4ZM103.1,11.4a21.7,21.7,0,0,1,21.67,21.67,20.52,20.52,0,0,1-.14,2.37,21.68,21.68,0,0,1-21.53,19.3,18.86,18.86,0,0,1-2.83-.2,21.65,21.65,0,0,1-18-15.48,21.21,21.21,0,0,1-.86-6A21.69,21.69,0,0,1,103.1,11.4ZM96.7,65.51a33,33,0,0,0,39.38-30.18h80a45.54,45.54,0,0,0-22.89,12.39l-131.1,131a42.53,42.53,0,0,0-3.32,3.69ZM34.59,320.44a28.42,28.42,0,0,1-10.36-31.87l24.48-75.34a45.55,45.55,0,0,0,4.92,18.43l82.19,161.48c-.2.14-.39.29-.57.43ZM161.14,440.58a21,21,0,0,1-5.58.74,21.7,21.7,0,0,1-21.65-20.51c0-.39,0-.77,0-1.16a21.61,21.61,0,0,1,7.67-16.53,22.19,22.19,0,0,1,3.5-2.41,21,21,0,0,1,7.17-2.46,21.67,21.67,0,0,1,25,21.4,20.46,20.46,0,0,1-.1,2.09,19.26,19.26,0,0,1-.3,2A21.67,21.67,0,0,1,161.14,440.58Zm105.62,24.2a28.44,28.44,0,0,1-33.51,0l-46.6-33.86a32.43,32.43,0,0,0,1.95-10.24l177.4-28ZM465.43,320.44l-62.35,45.3a44.64,44.64,0,0,0,3.35-11.36l28.8-181.19c1,.1,2.06.15,3.11.15l37.44,115.23A28.43,28.43,0,0,1,465.43,320.44Z"/></g></g></svg>